<svg width="24" height="25" viewBox="0 0 24 25" fill="none" xmlns="http://www.w3.org/2000/svg">
<path d="M12 22.4062C17.5228 22.4062 22 17.9291 22 12.4062C22 6.8834 17.5228 2.40625 12 2.40625C6.47715 2.40625 2 6.8834 2 12.4062C2 17.9291 6.47715 22.4062 12 22.4062Z" stroke="#434343" stroke-width="1.8" stroke-linecap="round" stroke-linejoin="round"/>
<path d="M8.0001 3.40625H9.0001C7.0501 9.24625 7.0501 15.5662 9.0001 21.4062H8.0001" stroke="#434343" stroke-width="1.8" stroke-linecap="round" stroke-linejoin="round"/>
<path d="M15 3.40625C16.95 9.24625 16.95 15.5662 15 21.4062" stroke="#434343" stroke-width="1.8" stroke-linecap="round" stroke-linejoin="round"/>
<path d="M3 16.4062V15.4062C8.84 17.3563 15.16 17.3563 21 15.4062V16.4062" stroke="#434343" stroke-width="1.8" stroke-linecap="round" stroke-linejoin="round"/>
<path d="M3 9.40635C8.84 7.45635 15.16 7.45635 21 9.40635" stroke="#434343" stroke-width="1.8" stroke-linecap="round" stroke-linejoin="round"/>
</svg>
