<svg width="24" height="25" viewBox="0 0 24 25" fill="none" xmlns="http://www.w3.org/2000/svg">
<path d="M18.4701 17.2363L18.8601 20.3962C18.9601 21.2262 18.0701 21.8062 17.3601 21.3762L13.1701 18.8862C12.7101 18.8862 12.2601 18.8563 11.8201 18.7963C12.5601 17.9263 13.0001 16.8262 13.0001 15.6362C13.0001 12.7962 10.5401 10.4963 7.50009 10.4963C6.34009 10.4963 5.2701 10.8263 4.3801 11.4062C4.3501 11.1562 4.34009 10.9062 4.34009 10.6462C4.34009 6.09624 8.29009 2.40625 13.1701 2.40625C18.0501 2.40625 22.0001 6.09624 22.0001 10.6462C22.0001 13.3462 20.6101 15.7363 18.4701 17.2363Z" stroke="#434343" stroke-width="2" stroke-linecap="round" stroke-linejoin="round"/>
<path d="M13 15.636C13 16.826 12.56 17.9261 11.82 18.7961C10.83 19.9961 9.26 20.7661 7.5 20.7661L4.89 22.316C4.45 22.586 3.89 22.2161 3.95 21.7061L4.2 19.7361C2.86 18.8061 2 17.316 2 15.636C2 13.876 2.94 12.3261 4.38 11.4061C5.27 10.8261 6.34 10.4961 7.5 10.4961C10.54 10.4961 13 12.796 13 15.636Z" stroke="#434343" stroke-width="2" stroke-linecap="round" stroke-linejoin="round"/>
</svg>
