<svg version="1.1" id="Layer_1" xmlns="http://www.w3.org/2000/svg" xmlns:xlink="http://www.w3.org/1999/xlink" x="0px" y="0px"
	 width="100%" viewBox="0 0 369 346" enable-background="new 0 0 369 346" xml:space="preserve">
<path fill="#FFFFFF" opacity="1.000000" stroke="none" 
	d="
M370.000000,121.000000 
	C370.000000,196.666672 370.000000,271.833344 370.000000,347.000000 
	C247.000015,347.000000 124.000023,347.000000 1.000027,347.000000 
	C1.000018,231.666687 1.000018,116.333374 1.000009,1.000042 
	C123.999969,1.000028 246.999939,1.000028 369.999939,1.000014 
	C370.000000,40.833332 370.000000,80.666664 370.000000,121.000000 
M116.066269,286.055054 
	C104.375153,286.098694 92.684029,286.142303 80.092186,286.070282 
	C78.095932,286.041504 76.099678,285.987823 74.103432,285.988159 
	C64.556190,285.989777 55.112286,275.726349 54.928535,267.734283 
	C54.764496,260.599396 54.163452,253.468048 54.185318,246.336456 
	C54.350018,192.613678 54.621025,138.891235 54.859699,85.168694 
	C54.861916,84.669594 54.793236,84.152229 54.898483,83.674416 
	C55.601402,80.483337 56.342648,77.300697 57.653290,73.766541 
	C62.066097,68.351707 67.344955,64.386147 74.623665,64.036148 
	C79.075256,63.822086 83.537811,63.836327 88.922127,63.894943 
	C105.611580,63.848938 122.301041,63.802929 139.919403,63.916084 
	C154.945114,63.866501 169.970810,63.816917 185.925293,63.919086 
	C200.283920,63.867512 214.642563,63.815937 229.928970,63.898266 
	C245.286758,63.849644 260.644562,63.801018 276.929596,63.907822 
	C291.954224,63.853497 306.978882,63.799168 322.930176,63.904083 
	C332.516205,63.904083 342.102234,63.904083 351.996948,63.904083 
	C351.996948,50.449512 352.211334,37.800087 351.903351,25.163399 
	C351.756897,19.153511 346.834015,15.045083 340.491364,14.963094 
	C331.995880,14.853278 323.497253,14.987683 314.064697,14.947736 
	C300.709808,14.968124 287.354889,14.988514 273.064392,14.944928 
	C257.709595,14.964532 242.354797,14.984136 226.064240,14.942410 
	C212.042831,14.963023 198.021408,14.983637 183.064285,14.942140 
	C168.375992,14.963547 153.687683,14.984953 138.063812,14.943347 
	C122.042442,14.962771 106.021065,14.982195 89.064209,14.936462 
	C77.709297,14.959491 66.354393,14.982519 54.064285,14.935787 
	C46.042675,14.960650 38.021061,14.985514 29.127808,14.937727 
	C24.030094,14.780525 18.613192,14.954504 15.997425,19.928288 
	C14.353695,23.053778 14.146267,27.196976 14.142722,30.884413 
	C14.050221,127.101425 14.068727,223.318542 14.070433,319.535645 
	C14.070468,321.533142 14.008393,323.536072 14.128835,325.527161 
	C14.505123,331.747894 18.870214,335.996796 25.048050,336.012634 
	C37.698021,336.045105 50.348251,335.975830 63.933052,336.032196 
	C72.621490,336.005341 81.309937,335.978485 90.933289,336.033051 
	C103.288284,336.005524 115.643280,335.977997 128.933197,336.027069 
	C141.954895,336.001923 154.976608,335.976776 168.933502,336.028259 
	C179.954865,336.003510 190.976242,335.978760 202.932983,336.024872 
	C217.288452,336.001007 231.643921,335.977173 246.934586,336.023560 
	C277.954773,335.990234 308.974976,335.956879 340.776733,335.983826 
	C350.031769,333.796875 351.996552,331.415588 352.040314,322.149811 
	C352.078766,314.000336 352.054474,305.850586 352.057007,297.700958 
	C352.058167,293.950531 352.057190,290.200134 352.057190,286.173828 
	C327.161804,286.173828 303.080109,286.173828 278.067413,286.064362 
	C260.044891,286.101562 242.022339,286.138763 223.068405,286.054810 
	C210.378525,286.095276 197.688644,286.135712 184.067520,286.053009 
	C174.042908,286.094452 164.018311,286.135895 153.063477,286.066010 
	C141.041122,286.104492 129.018753,286.142975 116.066269,286.055054 
z"/>
<path fill="#AEAAFF" opacity="1.000000" stroke="none" 
	d="
M62.998375,335.948486 
	C50.348251,335.975830 37.698021,336.045105 25.048050,336.012634 
	C18.870214,335.996796 14.505123,331.747894 14.128835,325.527161 
	C14.008393,323.536072 14.070468,321.533142 14.070433,319.535645 
	C14.068727,223.318542 14.050221,127.101425 14.142722,30.884413 
	C14.146267,27.196976 14.353695,23.053778 15.997425,19.928288 
	C18.613192,14.954504 24.030094,14.780525 29.573675,15.396101 
	C30.346094,17.805717 30.923603,19.752213 30.960602,21.708929 
	C31.356262,42.633255 31.609077,63.560356 32.031761,84.484055 
	C32.175526,91.600861 32.671520,98.711075 33.036968,105.822731 
	C33.376781,112.435638 33.598904,119.059731 34.152134,125.655472 
	C35.339054,139.806061 36.723701,153.939957 37.993813,168.083710 
	C39.057728,179.931305 39.707676,191.829422 41.195999,203.622482 
	C43.509155,221.951218 46.148521,240.246689 49.077053,258.487640 
	C51.953876,276.406525 55.342400,294.243652 58.549580,312.108887 
	C59.977905,320.065247 61.512184,328.002533 62.998375,335.948486 
z"/>
<path fill="#ACAFFF" opacity="1.000000" stroke="none" 
	d="
M63.465714,335.990356 
	C61.512184,328.002533 59.977905,320.065247 58.549580,312.108887 
	C55.342400,294.243652 51.953876,276.406525 49.077053,258.487640 
	C46.148521,240.246689 43.509155,221.951218 41.195999,203.622482 
	C39.707676,191.829422 39.057728,179.931305 37.993813,168.083710 
	C36.723701,153.939957 35.339054,139.806061 34.152134,125.655472 
	C33.598904,119.059731 33.376781,112.435638 33.036968,105.822731 
	C32.671520,98.711075 32.175526,91.600861 32.031761,84.484055 
	C31.609077,63.560356 31.356262,42.633255 30.960602,21.708929 
	C30.923603,19.752213 30.346094,17.805717 30.009497,15.432426 
	C38.021061,14.985514 46.042675,14.960650 54.531921,15.438748 
	C55.333195,33.741337 55.641838,51.541531 56.043125,69.339630 
	C56.079174,70.938438 56.714451,72.523743 57.071442,74.115318 
	C56.342648,77.300697 55.601402,80.483337 54.898483,83.674416 
	C54.793236,84.152229 54.861916,84.669594 54.859699,85.168694 
	C54.621025,138.891235 54.350018,192.613678 54.185318,246.336456 
	C54.163452,253.468048 54.764496,260.599396 54.928535,267.734283 
	C55.112286,275.726349 64.556190,285.989777 74.103432,285.988159 
	C76.099678,285.987823 78.095932,286.041504 80.544693,286.548340 
	C81.900558,292.196594 82.759209,297.375153 83.716431,302.535370 
	C85.783600,313.679108 87.901337,324.813446 89.998375,335.951630 
	C81.309937,335.978485 72.621490,336.005341 63.465714,335.990356 
z"/>
<path fill="#A1CFFF" opacity="1.000000" stroke="none" 
	d="
M223.999802,286.175964 
	C242.022339,286.138763 260.044891,286.101562 278.534149,286.490021 
	C279.880371,288.988190 280.301300,291.468536 281.718964,293.062347 
	C287.730469,299.820892 293.689026,306.693604 300.317719,312.820557 
	C310.668945,322.388397 321.805298,330.880951 336.400879,333.159424 
	C337.710876,333.363922 338.802277,334.968964 339.995178,335.923523 
	C308.974976,335.956879 277.954773,335.990234 246.461609,335.615753 
	C242.072906,327.404968 237.879578,319.726227 234.317581,311.765045 
	C230.564133,303.375916 227.413712,294.717010 223.999802,286.175964 
z"/>
<path fill="#9FD5FF" opacity="1.000000" stroke="none" 
	d="
M340.385956,335.953674 
	C338.802277,334.968964 337.710876,333.363922 336.400879,333.159424 
	C321.805298,330.880951 310.668945,322.388397 300.317719,312.820557 
	C293.689026,306.693604 287.730469,299.820892 281.718964,293.062347 
	C280.301300,291.468536 279.880371,288.988190 278.999634,286.544739 
	C303.080109,286.173828 327.161804,286.173828 352.057190,286.173828 
	C352.057190,290.200134 352.058167,293.950531 352.057007,297.700958 
	C352.054474,305.850586 352.078766,314.000336 352.040314,322.149811 
	C351.996552,331.415588 350.031769,333.796875 340.385956,335.953674 
z"/>
<path fill="#A8BEFF" opacity="1.000000" stroke="none" 
	d="
M89.999695,15.001618 
	C106.021065,14.982195 122.042442,14.962771 138.533035,15.403162 
	C140.281555,31.827942 141.085648,47.792789 138.990494,63.756920 
	C122.301041,63.802929 105.611580,63.848938 88.472404,63.461922 
	C91.770332,59.774872 91.063873,55.363297 90.973969,51.188965 
	C90.714165,39.125114 90.333130,27.063881 89.999695,15.001618 
z"/>
<path fill="#9DDBFF" opacity="1.000000" stroke="none" 
	d="
M227.000000,15.003738 
	C242.354797,14.984136 257.709595,14.964532 273.478882,15.391388 
	C273.595581,17.956390 272.926544,20.098633 273.059998,22.189650 
	C273.944733,36.050026 275.001556,49.899426 276.002319,63.752396 
	C260.644562,63.801018 245.286758,63.849644 229.464447,63.416458 
	C228.668564,60.329067 228.122711,57.730122 228.041931,55.116802 
	C227.628647,41.747822 227.335281,28.375132 227.000000,15.003738 
z"/>
<path fill="#A4C8FF" opacity="1.000000" stroke="none" 
	d="
M139.454956,63.836502 
	C141.085648,47.792789 140.281555,31.827942 139.000824,15.434668 
	C153.687683,14.984953 168.375992,14.963547 183.542053,15.395866 
	C184.346558,18.776316 184.932526,21.701017 184.955368,24.630108 
	C185.057053,37.675167 184.997681,50.721478 184.996521,63.767334 
	C169.970810,63.816917 154.945114,63.866501 139.454956,63.836502 
z"/>
<path fill="#A4C8FF" opacity="1.000000" stroke="none" 
	d="
M223.534103,286.115387 
	C227.413712,294.717010 230.564133,303.375916 234.317581,311.765045 
	C237.879578,319.726227 242.072906,327.404968 245.994003,335.580627 
	C231.643921,335.977173 217.288452,336.001007 202.427002,335.632202 
	C198.686859,327.262665 195.113739,319.402649 192.313309,311.276337 
	C189.477249,303.046722 187.405350,294.553772 184.998764,286.176178 
	C197.688644,286.135712 210.378525,286.095276 223.534103,286.115387 
z"/>
<path fill="#A0D2FF" opacity="1.000000" stroke="none" 
	d="
M185.460907,63.843212 
	C184.997681,50.721478 185.057053,37.675167 184.955368,24.630108 
	C184.932526,21.701017 184.346558,18.776316 184.009918,15.426922 
	C198.021408,14.983637 212.042831,14.963023 226.532120,14.973074 
	C227.335281,28.375132 227.628647,41.747822 228.041931,55.116802 
	C228.122711,57.730122 228.668564,60.329067 229.000549,63.349503 
	C214.642563,63.815937 200.283920,63.867512 185.460907,63.843212 
z"/>
<path fill="#98E4FF" opacity="1.000000" stroke="none" 
	d="
M276.465942,63.830109 
	C275.001556,49.899426 273.944733,36.050026 273.059998,22.189650 
	C272.926544,20.098633 273.595581,17.956390 273.946686,15.423375 
	C287.354889,14.988514 300.709808,14.968124 314.478851,15.395578 
	C312.133301,26.123369 315.263733,36.122322 316.726898,46.112759 
	C317.606506,52.118893 320.187256,57.875885 322.003510,63.744843 
	C306.978882,63.799168 291.954224,63.853497 276.465942,63.830109 
z"/>
<path fill="#A8BCFF" opacity="1.000000" stroke="none" 
	d="
M167.998306,335.951599 
	C154.976608,335.976776 141.954895,336.001923 128.458939,335.598846 
	C126.488190,329.439636 124.801506,323.750275 123.536636,317.968597 
	C121.224892,307.401703 119.162682,296.780212 116.996399,286.181458 
	C129.018753,286.142975 141.041122,286.104492 153.531677,286.515076 
	C155.301971,291.905060 156.505554,296.874420 157.925919,301.781067 
	C161.227814,313.187347 164.634232,324.563324 167.998306,335.951599 
z"/>
<path fill="#AAB5FF" opacity="1.000000" stroke="none" 
	d="
M116.531342,286.118286 
	C119.162682,296.780212 121.224892,307.401703 123.536636,317.968597 
	C124.801506,323.750275 126.488190,329.439636 127.991470,335.560547 
	C115.643280,335.977997 103.288284,336.005524 90.465836,335.992340 
	C87.901337,324.813446 85.783600,313.679108 83.716431,302.535370 
	C82.759209,297.375153 81.900558,292.196594 80.995056,286.606140 
	C92.684029,286.142303 104.375153,286.098694 116.531342,286.118286 
z"/>
<path fill="#ABB5FF" opacity="1.000000" stroke="none" 
	d="
M89.531952,14.969040 
	C90.333130,27.063881 90.714165,39.125114 90.973969,51.188965 
	C91.063873,55.363297 91.770332,59.774872 88.009064,63.388470 
	C83.537811,63.836327 79.075256,63.822086 74.623665,64.036148 
	C67.344955,64.386147 62.066097,68.351707 57.362366,73.940933 
	C56.714451,72.523743 56.079174,70.938438 56.043125,69.339630 
	C55.641838,51.541531 55.333195,33.741337 54.999519,15.473629 
	C66.354393,14.982519 77.709297,14.959491 89.531952,14.969040 
z"/>
<path fill="#94EBFF" opacity="1.000000" stroke="none" 
	d="
M322.466858,63.824463 
	C320.187256,57.875885 317.606506,52.118893 316.726898,46.112759 
	C315.263733,36.122322 312.133301,26.123369 314.946472,15.430323 
	C323.497253,14.987683 331.995880,14.853278 340.491364,14.963094 
	C346.834015,15.045083 351.756897,19.153511 351.903351,25.163399 
	C352.211334,37.800087 351.996948,50.449512 351.996948,63.904083 
	C342.102234,63.904083 332.516205,63.904083 322.466858,63.824463 
z"/>
<path fill="#A7C2FF" opacity="1.000000" stroke="none" 
	d="
M168.465912,335.989929 
	C164.634232,324.563324 161.227814,313.187347 157.925919,301.781067 
	C156.505554,296.874420 155.301971,291.905060 153.996796,286.570740 
	C164.018311,286.135895 174.042908,286.094452 184.533142,286.114594 
	C187.405350,294.553772 189.477249,303.046722 192.313309,311.276337 
	C195.113739,319.402649 198.686859,327.262665 201.959320,335.596771 
	C190.976242,335.978760 179.954865,336.003510 168.465912,335.989929 
z"/>
</svg>