<svg width="15" height="14" viewBox="0 0 15 14" fill="none" xmlns="http://www.w3.org/2000/svg">
<g id="vuesax/bold/calendar-2">
<g id="calendar-2">
<path id="Vector" d="M10.0279 2.11809V1.24324C10.0279 1.01331 9.83725 0.822632 9.60732 0.822632C9.37739 0.822632 9.18671 1.01331 9.18671 1.24324V2.08444H5.54148V1.24324C5.54148 1.01331 5.3508 0.822632 5.12087 0.822632C4.89094 0.822632 4.70027 1.01331 4.70027 1.24324V2.11809C3.18609 2.25829 2.45144 3.16119 2.33928 4.50152C2.32806 4.66415 2.46265 4.79874 2.61968 4.79874H12.1085C12.2711 4.79874 12.4057 4.65854 12.3889 4.50152C12.2768 3.16119 11.5421 2.25829 10.0279 2.11809Z" fill="#777777"/>
<path id="Vector_2" d="M11.8505 5.64001H2.87758C2.56914 5.64001 2.31677 5.89238 2.31677 6.20082V9.65538C2.31677 11.3378 3.15798 12.4594 5.1208 12.4594H9.60725C11.5701 12.4594 12.4113 11.3378 12.4113 9.65538V6.20082C12.4113 5.89238 12.1589 5.64001 11.8505 5.64001ZM5.79938 10.334C5.7433 10.3844 5.68161 10.4237 5.61431 10.4517C5.54701 10.4798 5.47411 10.4966 5.4012 10.4966C5.3283 10.4966 5.25539 10.4798 5.1881 10.4517C5.1208 10.4237 5.05911 10.3844 5.00303 10.334C4.90209 10.2274 4.8404 10.0816 4.8404 9.93579C4.8404 9.78998 4.90209 9.64417 5.00303 9.53761C5.05911 9.48714 5.1208 9.44789 5.1881 9.41984C5.32269 9.36376 5.47972 9.36376 5.61431 9.41984C5.68161 9.44789 5.7433 9.48714 5.79938 9.53761C5.90032 9.64417 5.96201 9.78998 5.96201 9.93579C5.96201 10.0816 5.90032 10.2274 5.79938 10.334ZM5.91714 8.18607C5.8891 8.25337 5.84985 8.31506 5.79938 8.37114C5.7433 8.42161 5.68161 8.46087 5.61431 8.48891C5.54701 8.51695 5.47411 8.53377 5.4012 8.53377C5.3283 8.53377 5.25539 8.51695 5.1881 8.48891C5.1208 8.46087 5.05911 8.42161 5.00303 8.37114C4.95256 8.31506 4.9133 8.25337 4.88526 8.18607C4.85722 8.11878 4.8404 8.04587 4.8404 7.97297C4.8404 7.90006 4.85722 7.82716 4.88526 7.75986C4.9133 7.69256 4.95256 7.63087 5.00303 7.57479C5.05911 7.52432 5.1208 7.48507 5.1881 7.45702C5.32269 7.40094 5.47972 7.40094 5.61431 7.45702C5.68161 7.48507 5.7433 7.52432 5.79938 7.57479C5.84985 7.63087 5.8891 7.69256 5.91714 7.75986C5.94519 7.82716 5.96201 7.90006 5.96201 7.97297C5.96201 8.04587 5.94519 8.11878 5.91714 8.18607ZM7.7622 8.37114C7.70612 8.42161 7.64443 8.46087 7.57713 8.48891C7.50983 8.51695 7.43693 8.53377 7.36402 8.53377C7.29112 8.53377 7.21821 8.51695 7.15092 8.48891C7.08362 8.46087 7.02193 8.42161 6.96585 8.37114C6.86491 8.26459 6.80322 8.11878 6.80322 7.97297C6.80322 7.82716 6.86491 7.68135 6.96585 7.57479C7.02193 7.52432 7.08362 7.48507 7.15092 7.45702C7.28551 7.39534 7.44254 7.39534 7.57713 7.45702C7.64443 7.48507 7.70612 7.52432 7.7622 7.57479C7.86314 7.68135 7.92483 7.82716 7.92483 7.97297C7.92483 8.11878 7.86314 8.26459 7.7622 8.37114Z" fill="#777777"/>
</g>
</g>
</svg>
