<svg width="25" height="25" viewBox="0 0 25 25" fill="none" xmlns="http://www.w3.org/2000/svg">
<g id="vuesax/linear/calendar">
<g id="calendar">
<path id="Vector" d="M8.78125 2.58398V5.58398" stroke="#7E7E7E" stroke-width="1.7" stroke-miterlimit="10" stroke-linecap="round" stroke-linejoin="round"/>
<path id="Vector_2" d="M16.7812 2.58398V5.58398" stroke="#7E7E7E" stroke-width="1.7" stroke-miterlimit="10" stroke-linecap="round" stroke-linejoin="round"/>
<path id="Vector_3" d="M16.7812 4.08398C20.1112 4.26398 21.7812 5.53398 21.7812 10.234V16.414C21.7812 20.534 20.7812 22.594 15.7812 22.594H9.78125C4.78125 22.594 3.78125 20.534 3.78125 16.414V10.234C3.78125 5.53398 5.45125 4.27398 8.78125 4.08398H16.7812Z" stroke="#7E7E7E" stroke-width="1.7" stroke-miterlimit="10" stroke-linecap="round" stroke-linejoin="round"/>
<path id="Vector_4" d="M21.5312 18.1836H4.03125" stroke="#7E7E7E" stroke-width="1.5" stroke-miterlimit="10" stroke-linecap="round" stroke-linejoin="round"/>
<path id="Vector_5" d="M12.7812 8.83398C11.5512 8.83398 10.5112 9.50398 10.5112 10.804C10.5112 11.424 10.8013 11.894 11.2413 12.194C10.6313 12.554 10.2812 13.134 10.2812 13.814C10.2812 15.054 11.2313 15.824 12.7812 15.824C14.3212 15.824 15.2812 15.054 15.2812 13.814C15.2812 13.134 14.9312 12.544 14.3112 12.194C14.7612 11.884 15.0413 11.424 15.0413 10.804C15.0413 9.50398 14.0113 8.83398 12.7812 8.83398ZM12.7812 11.674C12.2613 11.674 11.8813 11.364 11.8813 10.874C11.8813 10.374 12.2613 10.084 12.7812 10.084C13.3012 10.084 13.6812 10.374 13.6812 10.874C13.6812 11.364 13.3012 11.674 12.7812 11.674ZM12.7812 14.584C12.1212 14.584 11.6412 14.254 11.6412 13.654C11.6412 13.054 12.1212 12.734 12.7812 12.734C13.4413 12.734 13.9213 13.064 13.9213 13.654C13.9213 14.254 13.4413 14.584 12.7812 14.584Z" fill="#7E7E7E"/>
</g>
</g>
</svg>
