<svg width="26" height="26" viewBox="0 0 26 26" fill="none" xmlns="http://www.w3.org/2000/svg">
<g id="vuesax/linear/clipboard-text">
<g id="clipboard-text">
<path id="Vector" d="M9.2428 12.971H16.5047" stroke="#888C90" stroke-width="1.42645" stroke-miterlimit="10" stroke-linecap="round" stroke-linejoin="round"/>
<path id="Vector_2" d="M9.2428 17.1207H13.7867" stroke="#888C90" stroke-width="1.42645" stroke-miterlimit="10" stroke-linecap="round" stroke-linejoin="round"/>
<path id="Vector_3" d="M11.3176 6.53904H15.4673C17.5422 6.53904 17.5422 5.50162 17.5422 4.4642C17.5422 2.38936 16.5047 2.38936 15.4673 2.38936H11.3176C10.2802 2.38936 9.2428 2.38936 9.2428 4.4642C9.2428 6.53904 10.2802 6.53904 11.3176 6.53904Z" stroke="#888C90" stroke-width="1.42645" stroke-miterlimit="10" stroke-linecap="round" stroke-linejoin="round"/>
<path id="Vector_4" d="M17.542 4.48492C20.9966 4.67166 22.7291 5.94769 22.7291 10.6887V16.9132C22.7291 21.0629 21.6917 23.1377 16.5046 23.1377H10.2801C5.09296 23.1377 4.05554 21.0629 4.05554 16.9132V10.6887C4.05554 5.95806 5.78803 4.67166 9.24264 4.48492" stroke="#888C90" stroke-width="1.42645" stroke-miterlimit="10" stroke-linecap="round" stroke-linejoin="round"/>
</g>
</g>
</svg>
