<svg width="51" height="50" viewBox="0 0 51 50" fill="none" xmlns="http://www.w3.org/2000/svg">
<g id="carbon:copy-link">
<path id="Vector" d="M19.0292 29.4773C17.5111 29.4771 16.0272 29.0269 14.765 28.1835C13.5028 27.3401 12.519 26.1413 11.938 24.7389C11.357 23.3364 11.2049 21.7932 11.5008 20.3042C11.7968 18.8153 12.5275 17.4475 13.6007 16.3739L21.5224 8.45381C22.9621 7.01409 24.9148 6.20526 26.9508 6.20526C28.9869 6.20526 30.9396 7.01409 32.3793 8.45381C33.819 9.89353 34.6279 11.8462 34.6279 13.8823C34.6279 15.9184 33.819 17.871 32.3793 19.3108L31.5214 20.1671L29.3261 17.975L30.1902 17.1108C31.0449 16.2521 31.5242 15.0895 31.523 13.8779C31.5219 12.6663 31.0403 11.5046 30.184 10.6475C29.3125 9.81579 28.154 9.35172 26.9493 9.35172C25.7445 9.35172 24.5861 9.81579 23.7145 10.6475L15.796 18.5661C15.3709 18.9907 15.0337 19.4949 14.8036 20.05C14.5735 20.605 14.4551 21.2 14.4551 21.8008C14.4551 22.4016 14.5735 22.9966 14.8036 23.5516C15.0337 24.1067 15.3709 24.6109 15.796 25.0355C16.6676 25.8673 17.826 26.3314 19.0308 26.3314C20.2355 26.3314 21.3939 25.8673 22.2655 25.0355L24.4592 27.2293C23.7477 27.9443 22.9014 28.5112 21.9693 28.8971C21.0373 29.2829 20.038 29.4802 19.0292 29.4773Z" fill="black"/>
<path id="Vector_2" d="M31.4403 26.3744C29.9223 26.3743 28.4384 25.924 27.1762 25.0806C25.914 24.2372 24.9302 23.0385 24.3492 21.636C23.7681 20.2335 23.616 18.6903 23.9119 17.2013C24.2079 15.7124 24.9387 14.3447 26.0119 13.271L26.8698 12.4115L29.0635 14.6068L28.2071 15.4632C27.3495 16.3209 26.8676 17.4842 26.8676 18.6972C26.8676 19.9101 27.3495 21.0734 28.2071 21.9311C29.0787 22.7629 30.2371 23.2269 31.4419 23.2269C32.6466 23.2269 33.8051 22.7629 34.6766 21.9311L42.5967 14.011C43.4528 13.1528 43.9335 11.9901 43.9335 10.7778C43.9335 9.56564 43.4528 8.40291 42.5967 7.54466C41.7252 6.71291 40.5667 6.24884 39.362 6.24884C38.1572 6.24884 36.9988 6.71291 36.1272 7.54466L33.9335 5.34938C35.3732 3.90966 37.3259 3.10083 39.362 3.10083C41.398 3.10083 43.3507 3.90966 44.7904 5.34938C46.2302 6.7891 47.039 8.74178 47.039 10.7778C47.039 12.8139 46.2302 14.7666 44.7904 16.2063L36.8719 24.1233C36.1604 24.8385 35.3141 25.4056 34.3821 25.7917C33.4501 26.1778 32.4507 26.3754 31.4419 26.3729L31.4403 26.3744Z" fill="black"/>
<path id="Vector_3" d="M37.7283 46.543H6.69955C5.87687 46.5422 5.08812 46.2151 4.5064 45.6333C3.92467 45.0516 3.5975 44.2629 3.59668 43.4402V12.4115C3.5975 11.5888 3.92467 10.8 4.5064 10.2183C5.08812 9.63659 5.87687 9.30942 6.69955 9.30859H12.9053V12.4115H6.69955V43.4402H37.7283V27.9258H40.8311V43.4402C40.8303 44.2629 40.5031 45.0516 39.9214 45.6333C39.3397 46.2151 38.5509 46.5422 37.7283 46.543Z" fill="black"/>
</g>
</svg>
