<svg width="26" height="25" viewBox="0 0 26 25" fill="none" xmlns="http://www.w3.org/2000/svg">
<g id="vuesax/linear/pen-tool">
<g id="pen-tool">
<g id="Group">
<g id="Group_2">
<path id="Vector" d="M12.042 23.3707H14.682C15.6877 23.3707 16.3372 22.6907 16.1487 21.8607L15.7192 20.0508H11.0049L10.5753 21.8607C10.3868 22.6407 11.0992 23.3707 12.042 23.3707Z" stroke="#7E7E7E" stroke-width="1.6" stroke-linecap="round" stroke-linejoin="round"/>
<path id="Vector_2" d="M15.7194 20.0413L17.5318 18.5012C18.5479 17.6412 18.5899 17.0412 17.7832 16.0712L14.5879 12.2013C13.9175 11.3913 12.8175 11.3913 12.147 12.2013L8.95176 16.0712C8.14509 17.0412 8.14509 17.6712 9.20319 18.5012L11.0156 20.0413" stroke="#7E7E7E" stroke-width="1.6" stroke-linecap="round" stroke-linejoin="round"/>
<path id="Vector_3" d="M13.3623 11.9912V14.5212" stroke="#7E7E7E" stroke-width="1.6" stroke-linecap="round" stroke-linejoin="round"/>
</g>
</g>
<path id="Vector_4" d="M12.4628 6.06075L11.6457 5.28072C11.1533 4.81072 11.1533 4.05077 11.6457 3.58077L12.4628 2.80074C12.9552 2.33074 13.7514 2.33074 14.2437 2.80074L15.0609 3.58077C15.5533 4.05077 15.5533 4.81072 15.0609 5.28072L14.2437 6.06075C13.7514 6.53075 12.9552 6.53075 12.4628 6.06075Z" stroke="#7E7E7E" stroke-width="1.6" stroke-linecap="round" stroke-linejoin="round"/>
<path id="Vector_5" d="M21.1566 10.6807H22.3089C23.0004 10.6807 23.5661 11.2207 23.5661 11.8807V12.9807C23.5661 13.6407 23.0004 14.1807 22.3089 14.1807H21.1566C20.4651 14.1807 19.8994 13.6407 19.8994 12.9807V11.8807C19.8994 11.2207 20.4651 10.6807 21.1566 10.6807Z" stroke="#7E7E7E" stroke-width="1.6" stroke-linecap="round" stroke-linejoin="round"/>
<path id="Vector_6" d="M5.5482 10.6807H4.39581C3.70438 10.6807 3.13867 11.2207 3.13867 11.8807V12.9807C3.13867 13.6407 3.70438 14.1807 4.39581 14.1807H5.5482C6.23963 14.1807 6.80534 13.6407 6.80534 12.9807V11.8807C6.80534 11.2207 6.23963 10.6807 5.5482 10.6807Z" stroke="#7E7E7E" stroke-width="1.6" stroke-linecap="round" stroke-linejoin="round"/>
<path id="Vector_7" d="M20.2038 10.9709L14.6514 5.6709" stroke="#7E7E7E" stroke-width="1.6" stroke-linecap="round" stroke-linejoin="round"/>
<path id="Vector_8" d="M6.50195 10.9709L12.0543 5.6709" stroke="#7E7E7E" stroke-width="1.6" stroke-linecap="round" stroke-linejoin="round"/>
</g>
</g>
</svg>
