<svg width="29" height="29" viewBox="0 0 29 29" fill="none" xmlns="http://www.w3.org/2000/svg">
<g id="vuesax/bold/edit-2">
<g id="edit-2">
<path id="Vector" d="M24.9223 26.0203H4.26478C3.79425 26.0203 3.40405 25.6301 3.40405 25.1596C3.40405 24.689 3.79425 24.2988 4.26478 24.2988H24.9223C25.3929 24.2988 25.783 24.689 25.783 25.1596C25.783 25.6301 25.3929 26.0203 24.9223 26.0203Z" fill="#292D32"/>
<path id="Vector_2" d="M22.65 4.76562C20.4236 2.5392 18.243 2.48182 15.9592 4.76562L14.5706 6.15427C14.4558 6.26903 14.4099 6.45266 14.4558 6.61332C15.328 9.65457 17.761 12.0876 20.8023 12.9598C20.8482 12.9713 20.8941 12.9827 20.94 12.9827C21.0662 12.9827 21.181 12.9368 21.2728 12.845L22.65 11.4564C23.7861 10.3317 24.337 9.24142 24.337 8.13969C24.3485 7.00352 23.7976 5.90179 22.65 4.76562Z" fill="#292D32"/>
<path id="Vector_3" d="M18.7366 14.0039C18.4037 13.8432 18.0824 13.6826 17.7725 13.499C17.5201 13.3498 17.2791 13.1891 17.0381 13.0169C16.843 12.8907 16.6134 12.7071 16.3954 12.5235C16.3724 12.512 16.2921 12.4431 16.2003 12.3513C15.8216 12.03 15.3969 11.6168 15.0182 11.1578C14.9838 11.1348 14.9264 11.0545 14.8461 10.9512C14.7313 10.8135 14.5362 10.5839 14.3641 10.32C14.2263 10.1478 14.0657 9.89536 13.9165 9.64288C13.7328 9.33302 13.5722 9.02315 13.4115 8.70181C13.3872 8.64972 13.3637 8.59788 13.3409 8.54635C13.1715 8.16382 12.6727 8.05199 12.3769 8.3478L5.80265 14.922C5.65346 15.0712 5.51574 15.3581 5.48131 15.5532L4.86159 19.9487C4.74682 20.7291 4.96487 21.4636 5.44688 21.9571C5.86003 22.3587 6.43385 22.5768 7.05358 22.5768C7.1913 22.5768 7.32901 22.5653 7.46673 22.5424L11.8737 21.9226C12.0802 21.8882 12.3672 21.7505 12.5049 21.6013L19.0709 15.0353C19.3688 14.7374 19.2564 14.2262 18.8689 14.0609C18.8253 14.0422 18.7812 14.0233 18.7366 14.0039Z" fill="#292D32"/>
</g>
</g>
</svg>
