<svg width="24" height="25" viewBox="0 0 24 25" fill="none" xmlns="http://www.w3.org/2000/svg">
<g id="vuesax/linear/game">
<g id="game">
<path id="Vector" d="M9.57002 13.3271L6.52002 16.3771" stroke="#434343" stroke-width="1.8" stroke-miterlimit="10" stroke-linecap="round" stroke-linejoin="round"/>
<path id="Vector_2" d="M6.55005 13.3574L9.60005 16.4074" stroke="#434343" stroke-width="1.8" stroke-miterlimit="10" stroke-linecap="round" stroke-linejoin="round"/>
<path id="Vector_3" d="M13.53 14.8672H13.54" stroke="#434343" stroke-width="1.8" stroke-miterlimit="10" stroke-linecap="round" stroke-linejoin="round"/>
<path id="Vector_4" d="M17.47 14.8672H17.48" stroke="#434343" stroke-width="1.8" stroke-miterlimit="10" stroke-linecap="round" stroke-linejoin="round"/>
<path id="Vector_5" d="M15.5 16.8471V16.8271" stroke="#434343" stroke-width="1.8" stroke-miterlimit="10" stroke-linecap="round" stroke-linejoin="round"/>
<path id="Vector_6" d="M15.5 12.9067V12.8867" stroke="#292D32" stroke-width="2" stroke-miterlimit="10" stroke-linecap="round" stroke-linejoin="round"/>
<path id="Vector_7" d="M9 22.8672H15C20 22.8672 22 20.8672 22 15.8672V13.8672C22 8.86719 20 6.86719 15 6.86719H9C4 6.86719 2 8.86719 2 13.8672V15.8672C2 20.8672 4 22.8672 9 22.8672Z" stroke="#292D32" stroke-width="1.5" stroke-linecap="round" stroke-linejoin="round"/>
<path id="Vector_8" d="M13.01 2.86719L13 3.87719C12.99 4.42719 12.55 4.86719 12 4.86719H11.97C11.42 4.86719 10.98 5.31719 10.98 5.86719C10.98 6.41719 11.43 6.86719 11.98 6.86719H12.98" stroke="#292D32" stroke-width="1.5" stroke-linecap="round" stroke-linejoin="round"/>
</g>
</g>
</svg>
