<svg width="74" height="74" viewBox="0 0 74 74" fill="none" xmlns="http://www.w3.org/2000/svg">
<g id="bxl:gmail">
<path id="Vector" d="M57.8164 16.5245L53.9068 19.5788L37.2606 31.949L20.6144 19.4567L16.7049 16.4023C15.7839 15.6404 14.6595 15.1654 13.4712 15.0363C12.2829 14.9071 11.0828 15.1294 10.0195 15.6756C8.95633 16.2219 8.07673 17.0681 7.48973 18.1093C6.90272 19.1506 6.63411 20.3412 6.71716 21.5336V56.9335C6.71716 58.0352 7.1548 59.0918 7.93381 59.8708C8.71282 60.6498 9.76938 61.0874 10.8711 61.0874H20.6144V37.5079L37.2606 50.0001L53.9068 37.5079V61.0874H63.6502C64.7519 61.0874 65.8085 60.6498 66.5875 59.8708C67.3665 59.0918 67.8041 58.0352 67.8041 56.9335V21.5336C67.8615 20.3515 67.5742 19.1781 66.9771 18.1562C66.3801 17.1343 65.4991 16.3078 64.4412 15.7772C63.3832 15.2466 62.1939 15.0348 61.0178 15.1674C59.8418 15.3001 58.7295 15.7716 57.8164 16.5245Z" fill="#00509F"/>
</g>
</svg>
