<svg width="96" height="17" viewBox="0 0 96 17" fill="none" xmlns="http://www.w3.org/2000/svg">
<g id="Group 33881">
<path id="Vector" d="M10.0454 1.34312L11.4798 4.21634C11.6754 4.61631 12.197 4.99995 12.6371 5.07341L15.237 5.50603C16.8996 5.78355 17.2908 6.99161 16.0927 8.18335L14.0715 10.2077C13.7292 10.5505 13.5418 11.2117 13.6477 11.6851L14.2264 14.191C14.6828 16.1745 13.6314 16.9418 11.8792 15.9051L9.44231 14.4604C9.00221 14.1992 8.27686 14.1992 7.82861 14.4604L5.39176 15.9051C3.64766 16.9418 2.58816 16.1663 3.04456 14.191L3.62321 11.6851C3.72916 11.2117 3.54171 10.5505 3.19941 10.2077L1.17821 8.18335C-0.011692 6.99161 0.371358 5.78355 2.03396 5.50603L4.63381 5.07341C5.06576 4.99995 5.58736 4.61631 5.78296 4.21634L7.21736 1.34312C7.99976 -0.215934 9.27116 -0.215934 10.0454 1.34312Z" fill="#FFA800"/>
<path id="Vector_2" d="M36.4517 1.34312L37.8861 4.21634C38.0817 4.61631 38.6033 4.99995 39.0434 5.07341L41.6432 5.50603C43.3058 5.78355 43.697 6.99161 42.499 8.18335L40.4778 10.2077C40.1355 10.5505 39.948 11.2117 40.054 11.6851L40.6326 14.191C41.089 16.1745 40.0377 16.9418 38.2854 15.9051L35.8486 14.4604C35.4085 14.1992 34.6831 14.1992 34.2349 14.4604L31.798 15.9051C30.0539 16.9418 28.9944 16.1663 29.4508 14.191L30.0295 11.6851C30.1354 11.2117 29.948 10.5505 29.6057 10.2077L27.5845 8.18335C26.3946 6.99161 26.7776 5.78355 28.4402 5.50603L31.0401 5.07341C31.472 4.99995 31.9936 4.61631 32.1892 4.21634L33.6236 1.34312C34.406 -0.215934 35.6774 -0.215934 36.4517 1.34312Z" fill="#FFA800"/>
<path id="Vector_3" d="M62.8579 1.34312L64.2923 4.21634C64.4879 4.61631 65.0095 4.99995 65.4496 5.07341L68.0495 5.50603C69.7121 5.78355 70.1033 6.99161 68.9052 8.18335L66.884 10.2077C66.5417 10.5505 66.3543 11.2117 66.4602 11.6851L67.0389 14.191C67.4953 16.1745 66.4439 16.9418 64.6917 15.9051L62.2548 14.4604C61.8147 14.1992 61.0894 14.1992 60.6411 14.4604L58.2043 15.9051C56.4602 16.9418 55.4007 16.1663 55.8571 14.191L56.4357 11.6851C56.5417 11.2117 56.3542 10.5505 56.0119 10.2077L53.9907 8.18335C52.8008 6.99161 53.1839 5.78355 54.8465 5.50603L57.4463 5.07341C57.8783 4.99995 58.3999 4.61631 58.5955 4.21634L60.0299 1.34312C60.8123 -0.215934 62.0837 -0.215934 62.8579 1.34312Z" fill="#FFA800"/>
<path id="Vector_4" d="M89.2642 1.34312L90.6986 4.21634C90.8942 4.61631 91.4158 4.99995 91.8559 5.07341L94.4557 5.50603C96.1183 5.78355 96.5095 6.99161 95.3115 8.18335L93.2903 10.2077C92.948 10.5505 92.7605 11.2117 92.8665 11.6851L93.4451 14.191C93.9015 16.1745 92.8502 16.9418 91.0979 15.9051L88.6611 14.4604C88.221 14.1992 87.4956 14.1992 87.0474 14.4604L84.6105 15.9051C82.8664 16.9418 81.8069 16.1663 82.2633 14.191L82.842 11.6851C82.9479 11.2117 82.7605 10.5505 82.4182 10.2077L80.397 8.18335C79.2071 6.99161 79.5901 5.78355 81.2527 5.50603L83.8526 5.07341C84.2845 4.99995 84.8061 4.61631 85.0017 4.21634L86.4361 1.34312C87.2185 -0.215934 88.4899 -0.215934 89.2642 1.34312Z" fill="#A8A8A8"/>
</g>
</svg>
