<svg width="32" height="32" viewBox="0 0 32 32" fill="none" xmlns="http://www.w3.org/2000/svg">
<g id="front_hand">
<mask id="mask0_1424_4612" style="mask-type:alpha" maskUnits="userSpaceOnUse" x="0" y="0" width="32" height="32">
<rect id="Bounding box" width="32" height="32" fill="#D9D9D9"/>
</mask>
<g mask="url(#mask0_1424_4612)">
<path id="front_hand_2" d="M16.4362 15.3334V4.00004C16.4362 3.81115 16.5002 3.65282 16.6282 3.52504C16.7561 3.39726 16.9146 3.33337 17.1038 3.33337C17.2929 3.33337 17.4512 3.39726 17.5785 3.52504C17.7059 3.65282 17.7696 3.81115 17.7696 4.00004V15.3334H16.4362ZM11.5388 15.3334V5.33337C11.5388 5.14449 11.6028 4.98615 11.7307 4.85837C11.8586 4.7306 12.0172 4.66671 12.2064 4.66671C12.3955 4.66671 12.5537 4.7306 12.6811 4.85837C12.8084 4.98615 12.8721 5.14449 12.8721 5.33337V15.3334H11.5388ZM16.6721 29.3334C13.8892 29.3334 11.526 28.3628 9.58236 26.4216C7.63878 24.4804 6.66699 22.1177 6.66699 19.3334V7.33337C6.66699 7.14449 6.73097 6.98615 6.85893 6.85837C6.98686 6.7306 7.1454 6.66671 7.33456 6.66671C7.52369 6.66671 7.68194 6.7306 7.80929 6.85837C7.93665 6.98615 8.00033 7.14449 8.00033 7.33337V19.3334C8.00033 21.7556 8.83921 23.8056 10.517 25.4834C12.1948 27.1612 14.2448 28 16.667 28C19.0892 28 21.1392 27.1612 22.817 25.4834C24.4948 23.8056 25.3337 21.7556 25.3337 19.3334V14H24.667C24.1183 14 23.6478 14.1962 23.2555 14.5885C22.8631 14.9808 22.667 15.4513 22.667 16V19.8975H20.1029C19.1644 19.8975 18.3743 20.2184 17.7324 20.8603C17.0905 21.5022 16.7696 22.2924 16.7696 23.2308V23.8975H15.4362V23.2308C15.4362 21.9351 15.8901 20.8334 16.7978 19.9257C17.7054 19.018 18.8072 18.5641 20.1029 18.5641H21.3337V6.66671C21.3337 6.47782 21.3976 6.31949 21.5256 6.19171C21.6535 6.06393 21.8121 6.00004 22.0012 6.00004C22.1904 6.00004 22.3486 6.06393 22.476 6.19171C22.6033 6.31949 22.667 6.47782 22.667 6.66671V13.4128C22.9405 13.1752 23.2451 12.9915 23.5807 12.8616C23.9163 12.7317 24.2784 12.6667 24.667 12.6667H26.667V19.3334C26.667 22.1177 25.6969 24.4804 23.7567 26.4216C21.8165 28.3628 19.455 29.3334 16.6721 29.3334Z" fill="#1C1B1F"/>
</g>
</g>
</svg>
