<svg version="1.1" id="Layer_1" xmlns="http://www.w3.org/2000/svg" xmlns:xlink="http://www.w3.org/1999/xlink" x="0px" y="0px"
	 width="100%" viewBox="0 0 372 356" enable-background="new 0 0 372 356" xml:space="preserve">
<path fill="#FFFFFF" opacity="1.000000" stroke="none" 
	d="
M1.000000,126.000000 
	C1.000000,84.014236 1.000000,42.528473 1.000000,1.021353 
	C124.943222,1.021353 248.886459,1.021353 372.914856,1.021353 
	C372.914856,119.569138 372.914856,238.138367 372.914856,356.853790 
	C249.000122,356.853790 125.000084,356.853790 1.000000,356.853790 
	C1.000000,280.113464 1.000000,203.306732 1.000000,126.000000 
M202.935074,66.088692 
	C210.290054,66.071167 217.645020,66.053635 225.936157,66.090363 
	C234.957443,66.071350 243.978714,66.052338 253.936142,66.086311 
	C262.624481,66.069626 271.312805,66.052940 280.937134,66.089157 
	C290.695801,66.331924 300.631409,64.827896 310.371124,69.585106 
	C316.768860,72.624863 320.384033,77.901054 320.933685,84.723770 
	C321.690521,94.117874 321.702911,103.571953 321.963409,113.935440 
	C321.987244,140.957336 322.011078,167.979218 321.967743,195.936295 
	C321.959900,217.817078 322.131897,239.700500 321.811615,261.576691 
	C321.736084,266.734070 320.002136,271.867157 318.468018,277.366302 
	C313.591492,284.474731 307.290466,288.500122 298.219086,288.158447 
	C288.495483,287.792175 278.742828,288.196655 268.073975,288.115570 
	C253.382690,288.166382 238.691422,288.217194 223.071945,288.117950 
	C208.713562,288.170319 194.355194,288.222687 179.069519,288.122681 
	C165.378174,288.174896 151.686844,288.227112 137.068726,288.124847 
	C125.711807,288.177917 114.354897,288.230988 102.070969,288.127441 
	C92.045952,288.182312 82.020935,288.237183 71.069679,288.130249 
	C64.044128,288.184479 57.018574,288.238708 49.068298,288.146179 
	C40.820633,288.146179 32.572968,288.146179 23.978304,288.146179 
	C23.978304,301.826355 23.924538,314.779877 24.000071,327.732666 
	C24.040276,334.627502 27.485170,338.004822 34.546581,338.079437 
	C42.696861,338.165558 50.849144,338.061768 59.935989,338.102966 
	C66.957809,338.082977 73.979630,338.062958 81.936974,338.106415 
	C92.625046,338.084259 103.313110,338.062103 114.936852,338.101288 
	C126.624969,338.080566 138.313095,338.059845 150.937042,338.097015 
	C165.625000,338.076813 180.312958,338.056641 195.936859,338.092712 
	C211.957977,338.074585 227.979095,338.056458 244.936386,338.091858 
	C264.624817,338.073578 284.313232,338.055328 304.937653,338.090454 
	C319.748291,338.093750 334.559021,338.121826 349.369568,338.090332 
	C357.265625,338.073547 361.651520,334.260101 361.814728,326.435852 
	C362.047058,315.298737 361.731567,304.150177 361.838684,292.082245 
	C361.772888,266.055664 361.707092,240.029114 361.833130,213.079529 
	C361.768097,190.049301 361.703064,167.019058 361.806915,143.068863 
	C361.745361,124.379150 361.683807,105.689430 361.822021,86.078529 
	C361.848022,67.954208 361.936859,49.829659 361.872070,31.705658 
	C361.842133,23.328869 358.538849,18.575871 351.835785,18.016949 
	C344.591919,17.412928 337.282867,17.590433 329.086914,17.227064 
	C321.395569,17.290169 313.704254,17.353273 305.093170,17.192488 
	C295.732056,17.262951 286.370972,17.333414 276.088379,17.183689 
	C267.722626,17.256697 259.356903,17.329706 250.074570,17.215366 
	C241.051819,17.277573 232.029068,17.339779 222.086502,17.186220 
	C215.059219,17.258915 208.031952,17.331608 200.085693,17.187801 
	C193.721008,17.259920 187.356339,17.332039 180.075256,17.215446 
	C172.046906,17.278353 164.018555,17.341261 155.073990,17.215630 
	C147.043793,17.282087 139.013580,17.348547 130.068848,17.222927 
	C121.040924,17.289230 112.012993,17.355534 102.071045,17.226419 
	C93.047150,17.295870 84.023262,17.365322 74.083252,17.205637 
	C65.054909,17.287834 56.026573,17.370031 46.109940,17.217699 
	C40.892208,17.786850 35.645905,18.172899 30.465471,18.981125 
	C26.051750,19.669729 24.086033,22.879444 24.038589,27.077335 
	C23.905617,38.843620 24.011488,50.612556 23.888142,62.379036 
	C23.859104,65.148918 24.790888,66.214638 27.612299,66.140747 
	C34.071758,65.971596 40.537277,66.033958 47.935440,66.074585 
	C56.623642,66.052048 65.311844,66.029510 74.935425,66.075386 
	C84.290230,66.052368 93.645042,66.029350 103.935387,66.072517 
	C112.956924,66.049385 121.978462,66.026260 131.935562,66.068138 
	C140.290375,66.046295 148.645187,66.024452 157.935699,66.064941 
	C165.957138,66.054466 173.978561,66.043991 182.935608,66.086327 
	C189.290039,66.068810 195.644455,66.051292 202.935074,66.088692 
z"/>
<path fill="#9FD4FF" opacity="1.000000" stroke="none" 
	d="
M269.002869,288.264771 
	C278.742828,288.196655 288.495483,287.792175 298.219086,288.158447 
	C307.290466,288.500122 313.591492,284.474731 319.096680,277.221985 
	C321.383148,278.123596 323.132385,279.049835 324.684052,280.234741 
	C335.605286,288.574615 347.881683,292.935455 361.650085,293.006500 
	C361.731567,304.150177 362.047058,315.298737 361.814728,326.435852 
	C361.651520,334.260101 357.265625,338.073547 349.369568,338.090332 
	C334.559021,338.121826 319.748291,338.093750 304.436798,337.714905 
	C295.804901,327.241364 287.352356,317.380157 279.670197,306.951508 
	C275.444977,301.215698 272.516174,294.524963 269.002869,288.264771 
z"/>
<path fill="#97E6FF" opacity="1.000000" stroke="none" 
	d="
M306.012909,17.416376 
	C313.704254,17.353273 321.395569,17.290169 329.561340,17.705576 
	C330.357147,20.299500 330.907288,22.408792 330.964081,24.531279 
	C331.458740,43.024422 335.122040,60.591347 345.168945,76.509598 
	C349.089569,82.721436 354.323578,86.346832 361.622253,86.999718 
	C361.683807,105.689430 361.745361,124.379150 361.320190,143.532867 
	C357.661316,143.380234 354.320374,143.205353 351.346649,142.069321 
	C339.425842,137.515228 332.268768,127.966896 326.111420,117.400581 
	C325.128845,115.714439 323.411743,114.456337 322.034210,113.000336 
	C321.702911,103.571953 321.690521,94.117874 320.933685,84.723770 
	C320.384033,77.901054 316.768860,72.624863 310.184021,68.862869 
	C309.951294,66.484871 309.984161,64.822624 309.847839,63.174377 
	C308.586182,47.920334 307.295319,32.668705 306.012909,17.416376 
z"/>
<path fill="#9DDAFF" opacity="1.000000" stroke="none" 
	d="
M361.744385,292.544373 
	C347.881683,292.935455 335.605286,288.574615 324.684052,280.234741 
	C323.132385,279.049835 321.383148,278.123596 319.378235,277.044525 
	C320.002136,271.867157 321.736084,266.734070 321.811615,261.576691 
	C322.131897,239.700500 321.959900,217.817078 322.342560,195.503693 
	C324.706573,196.775650 326.709625,198.464386 328.682648,200.187469 
	C338.139252,208.446213 348.674774,214.121567 361.641266,214.002548 
	C361.707092,240.029114 361.772888,266.055664 361.744385,292.544373 
z"/>
<path fill="#9AE0FF" opacity="1.000000" stroke="none" 
	d="
M361.737183,213.541046 
	C348.674774,214.121567 338.139252,208.446213 328.682648,200.187469 
	C326.709625,198.464386 324.706573,196.775650 322.376160,195.036102 
	C322.011078,167.979218 321.987244,140.957336 321.998810,113.467888 
	C323.411743,114.456337 325.128845,115.714439 326.111420,117.400581 
	C332.268768,127.966896 339.425842,137.515228 351.346649,142.069321 
	C354.320374,143.205353 357.661316,143.380234 361.235779,143.992859 
	C361.703064,167.019058 361.768097,190.049301 361.737183,213.541046 
z"/>
<path fill="#A2CDFF" opacity="1.000000" stroke="none" 
	d="
M268.538422,288.190186 
	C272.516174,294.524963 275.444977,301.215698 279.670197,306.951508 
	C287.352356,317.380157 295.804901,327.241364 303.968811,337.688232 
	C284.313232,338.055328 264.624817,338.073578 244.463242,337.682953 
	C238.497742,324.857666 232.898605,312.486725 227.578247,299.997101 
	C225.985397,296.257874 225.171112,292.186951 224.000137,288.268005 
	C238.691422,288.217194 253.382690,288.166382 268.538422,288.190186 
z"/>
<path fill="#A5C6FF" opacity="1.000000" stroke="none" 
	d="
M223.536041,288.192993 
	C225.171112,292.186951 225.985397,296.257874 227.578247,299.997101 
	C232.898605,312.486725 238.497742,324.857666 243.995148,337.656189 
	C227.979095,338.056458 211.957977,338.074585 195.462372,337.670471 
	C191.558823,326.951538 187.993744,316.697479 184.753265,306.341827 
	C182.895477,300.404755 181.564804,294.302765 179.996811,288.275024 
	C194.355194,288.222687 208.713562,288.170319 223.536041,288.192993 
z"/>
<path fill="#A7BFFF" opacity="1.000000" stroke="none" 
	d="
M179.533173,288.198853 
	C181.564804,294.302765 182.895477,300.404755 184.753265,306.341827 
	C187.993744,316.697479 191.558823,326.951538 194.994385,337.642334 
	C180.312958,338.056641 165.625000,338.076813 150.468674,337.649261 
	C148.816650,332.426971 147.621933,327.655151 146.451553,322.877350 
	C143.626801,311.346161 140.813446,299.812195 137.995499,288.279327 
	C151.686844,288.227112 165.378174,288.174896 179.533173,288.198853 
z"/>
<path fill="#A9B8FF" opacity="1.000000" stroke="none" 
	d="
M137.532104,288.202087 
	C140.813446,299.812195 143.626801,311.346161 146.451553,322.877350 
	C147.621933,327.655151 148.816650,332.426971 150.000763,337.620300 
	C138.313095,338.059845 126.624969,338.080566 114.468521,337.644592 
	C113.748924,335.573486 113.597183,333.936188 113.230850,332.348328 
	C109.840996,317.655396 106.414108,302.970978 102.997978,288.284058 
	C114.354897,288.230988 125.711807,288.177917 137.532104,288.202087 
z"/>
<path fill="#94EBFF" opacity="1.000000" stroke="none" 
	d="
M361.722137,86.539124 
	C354.323578,86.346832 349.089569,82.721436 345.168945,76.509598 
	C335.122040,60.591347 331.458740,43.024422 330.964081,24.531279 
	C330.907288,22.408792 330.357147,20.299500 330.018982,17.805569 
	C337.282867,17.590433 344.591919,17.412928 351.835785,18.016949 
	C358.538849,18.575871 361.842133,23.328869 361.872070,31.705658 
	C361.936859,49.829659 361.848022,67.954208 361.722137,86.539124 
z"/>
<path fill="#ACB2FF" opacity="1.000000" stroke="none" 
	d="
M102.534470,288.205750 
	C106.414108,302.970978 109.840996,317.655396 113.230850,332.348328 
	C113.597183,333.936188 113.748924,335.573486 114.000687,337.613892 
	C103.313110,338.062103 92.625046,338.084259 81.467880,337.662018 
	C79.499611,329.813721 77.888657,322.430237 76.530128,315.000610 
	C74.905983,306.118378 73.497704,297.196655 71.995918,288.292053 
	C82.020935,288.237183 92.045952,288.182312 102.534470,288.205750 
z"/>
<path fill="#AFA8FF" opacity="1.000000" stroke="none" 
	d="
M59.000557,338.040436 
	C50.849144,338.061768 42.696861,338.165558 34.546581,338.079437 
	C27.485170,338.004822 24.040276,334.627502 24.000071,327.732666 
	C23.924538,314.779877 23.978304,301.826355 23.978304,288.146179 
	C32.572968,288.146179 40.820633,288.146179 49.544510,288.593384 
	C52.003151,299.043213 54.069183,309.030182 55.937553,319.054047 
	C57.111866,325.354279 57.989708,331.709747 59.000557,338.040436 
z"/>
<path fill="#9AE1FF" opacity="1.000000" stroke="none" 
	d="
M305.553040,17.304432 
	C307.295319,32.668705 308.586182,47.920334 309.847839,63.174377 
	C309.984161,64.822624 309.951294,66.484871 309.992828,68.586395 
	C300.631409,64.827896 290.695801,66.331924 280.420441,65.653931 
	C279.608521,64.100868 279.104401,62.993134 279.049744,61.863651 
	C278.332764,47.045517 277.679291,32.224312 277.009857,17.403877 
	C286.370972,17.333414 295.732056,17.262951 305.553040,17.304432 
z"/>
<path fill="#AAB7FF" opacity="1.000000" stroke="none" 
	d="
M102.999847,66.006332 
	C93.645042,66.029350 84.290230,66.052368 74.520248,65.624954 
	C74.403381,63.059078 74.948128,60.945030 74.960030,58.827984 
	C75.037598,45.030609 74.999580,31.232584 74.999367,17.434772 
	C84.023262,17.365322 93.047150,17.295870 102.533630,17.749435 
	C102.997475,24.375551 102.999481,30.478651 102.999832,36.581753 
	C103.000404,46.389946 102.999901,56.198139 102.999847,66.006332 
z"/>
<path fill="#9ED6FF" opacity="1.000000" stroke="none" 
	d="
M253.000000,66.033325 
	C243.978714,66.052338 234.957443,66.071350 225.467957,65.624825 
	C224.335266,49.240185 223.670792,33.321083 223.006317,17.401985 
	C232.029068,17.339779 241.051819,17.277573 250.536377,17.735096 
	C251.665466,34.180996 252.332733,50.107166 253.000000,66.033325 
z"/>
<path fill="#A7BDFF" opacity="1.000000" stroke="none" 
	d="
M103.467621,66.039429 
	C102.999901,56.198139 103.000404,46.389946 102.999832,36.581753 
	C102.999481,30.478651 102.997475,24.375551 102.990646,17.847141 
	C112.012993,17.355534 121.040924,17.289230 130.532166,17.744711 
	C130.997009,24.369970 130.999344,30.473444 130.999802,36.576920 
	C131.000519,46.385658 131.000000,56.194397 131.000000,66.003136 
	C121.978462,66.026260 112.956924,66.049385 103.467621,66.039429 
z"/>
<path fill="#ACB2FF" opacity="1.000000" stroke="none" 
	d="
M74.541306,17.320206 
	C74.999580,31.232584 75.037598,45.030609 74.960030,58.827984 
	C74.948128,60.945030 74.403381,63.059078 74.052551,65.590744 
	C65.311844,66.029510 56.623642,66.052048 47.477547,65.615112 
	C47.346436,62.203293 47.991940,59.245857 47.944984,56.299461 
	C47.738586,43.348644 47.332157,30.401014 46.998234,17.452229 
	C56.026573,17.370031 65.054909,17.287834 74.541306,17.320206 
z"/>
<path fill="#9DDBFF" opacity="1.000000" stroke="none" 
	d="
M253.468063,66.059822 
	C252.332733,50.107166 251.665466,34.180996 250.994675,17.828770 
	C259.356903,17.329706 267.722626,17.256697 276.549133,17.293783 
	C277.679291,32.224312 278.332764,47.045517 279.049744,61.863651 
	C279.104401,62.993134 279.608521,64.100868 279.952454,65.627472 
	C271.312805,66.052940 262.624481,66.069626 253.468063,66.059822 
z"/>
<path fill="#A7C3FF" opacity="1.000000" stroke="none" 
	d="
M131.467773,66.035637 
	C131.000000,56.194397 131.000519,46.385658 130.999802,36.576920 
	C130.999344,30.473444 130.997009,24.369970 130.989441,17.840750 
	C139.013580,17.348547 147.043793,17.282087 155.535934,17.735083 
	C156.331924,34.170559 156.665955,50.086586 157.000000,66.002609 
	C148.645187,66.024452 140.290375,66.046295 131.467773,66.035637 
z"/>
<path fill="#A4C8FF" opacity="1.000000" stroke="none" 
	d="
M157.467850,66.033775 
	C156.665955,50.086586 156.331924,34.170559 155.994049,17.829353 
	C164.018555,17.341261 172.046906,17.278353 180.536835,17.736525 
	C181.332275,34.182911 181.666138,50.108215 182.000000,66.033524 
	C173.978561,66.043991 165.957138,66.054466 157.467850,66.033775 
z"/>
<path fill="#AEACFF" opacity="1.000000" stroke="none" 
	d="
M46.554085,17.334965 
	C47.332157,30.401014 47.738586,43.348644 47.944984,56.299461 
	C47.991940,59.245857 47.346436,62.203293 47.009995,65.578979 
	C40.537277,66.033958 34.071758,65.971596 27.612299,66.140747 
	C24.790888,66.214638 23.859104,65.148918 23.888142,62.379036 
	C24.011488,50.612556 23.905617,38.843620 24.038589,27.077335 
	C24.086033,22.879444 26.051750,19.669729 30.465471,18.981125 
	C35.645905,18.172899 40.892208,17.786850 46.554085,17.334965 
z"/>
<path fill="#A0D1FF" opacity="1.000000" stroke="none" 
	d="
M222.546417,17.294102 
	C223.670792,33.321083 224.335266,49.240185 224.999878,65.597702 
	C217.645020,66.053635 210.290054,66.071167 202.514893,65.655853 
	C202.380692,63.447224 202.973984,61.659233 202.904053,59.897579 
	C202.341522,45.730350 201.653992,31.568085 201.004669,17.404301 
	C208.031952,17.331608 215.059219,17.258915 222.546417,17.294102 
z"/>
<path fill="#AEACFF" opacity="1.000000" stroke="none" 
	d="
M59.468273,338.071716 
	C57.989708,331.709747 57.111866,325.354279 55.937553,319.054047 
	C54.069183,309.030182 52.003151,299.043213 50.006866,288.666779 
	C57.018574,288.238708 64.044128,288.184479 71.532799,288.211151 
	C73.497704,297.196655 74.905983,306.118378 76.530128,315.000610 
	C77.888657,322.430237 79.499611,329.813721 81.000122,337.630280 
	C73.979630,338.062958 66.957809,338.082977 59.468273,338.071716 
z"/>
<path fill="#A2CDFF" opacity="1.000000" stroke="none" 
	d="
M200.545166,17.296051 
	C201.653992,31.568085 202.341522,45.730350 202.904053,59.897579 
	C202.973984,61.659233 202.380692,63.447224 202.046799,65.628395 
	C195.644455,66.051292 189.290039,66.068810 182.467804,66.059921 
	C181.666138,50.108215 181.332275,34.182911 180.995041,17.830879 
	C187.356339,17.332039 193.721008,17.259920 200.545166,17.296051 
z"/>
</svg>