<svg width="24" height="25" viewBox="0 0 24 25" fill="none" xmlns="http://www.w3.org/2000/svg">
<g id="vuesax/linear/layer">
<g id="layer">
<path id="Vector" d="M13.01 3.42031L18.91 6.04031C20.61 6.79031 20.61 8.03031 18.91 8.78031L13.01 11.4003C12.34 11.7003 11.24 11.7003 10.57 11.4003L4.67002 8.78031C2.97002 8.03031 2.97002 6.79031 4.67002 6.04031L10.57 3.42031C11.24 3.12031 12.34 3.12031 13.01 3.42031Z" stroke="#434343" stroke-width="2" stroke-linecap="round" stroke-linejoin="round"/>
<path id="Vector_2" d="M3 11.5C3 12.34 3.63 13.31 4.4 13.65L11.19 16.67C11.71 16.9 12.3 16.9 12.81 16.67L19.6 13.65C20.37 13.31 21 12.34 21 11.5" stroke="#434343" stroke-width="2" stroke-linecap="round" stroke-linejoin="round"/>
<path id="Vector_3" d="M3 16.5C3 17.43 3.55 18.27 4.4 18.65L11.19 21.67C11.71 21.9 12.3 21.9 12.81 21.67L19.6 18.65C20.45 18.27 21 17.43 21 16.5" stroke="#434343" stroke-width="1.5" stroke-linecap="round" stroke-linejoin="round"/>
</g>
</g>
</svg>
