<svg width="24" height="25" viewBox="0 0 24 25" fill="none" xmlns="http://www.w3.org/2000/svg">
<path d="M8.67 14.4062H4C2.9 14.4062 2 15.3062 2 16.4062V22.4062H8.67V14.4062Z" stroke="#434343" stroke-width="1.7" stroke-miterlimit="10" stroke-linecap="round" stroke-linejoin="round"/>
<path d="M13.3299 10.4062H10.6599C9.55991 10.4062 8.65991 11.3062 8.65991 12.4062V22.4062H15.3299V12.4062C15.3299 11.3062 14.4399 10.4062 13.3299 10.4062Z" stroke="#434343" stroke-width="1.7" stroke-miterlimit="10" stroke-linecap="round" stroke-linejoin="round"/>
<path d="M20.0001 17.4062H15.3301V22.4062H22.0001V19.4062C22.0001 18.3062 21.1001 17.4062 20.0001 17.4062Z" stroke="#292D32" stroke-width="1.7" stroke-miterlimit="10" stroke-linecap="round" stroke-linejoin="round"/>
<path d="M12.52 2.47607L13.05 3.53607C13.12 3.68607 13.31 3.82607 13.47 3.84607L14.43 4.00607C15.04 4.10607 15.19 4.55605 14.75 4.98605L14 5.73605C13.87 5.86605 13.8 6.10606 13.84 6.27606L14.05 7.19607C14.22 7.92607 13.83 8.20608 13.19 7.82608L12.29 7.29608C12.13 7.19608 11.86 7.19608 11.7 7.29608L10.8 7.82608C10.16 8.20608 9.76998 7.92607 9.93998 7.19607L10.15 6.27606C10.19 6.10606 10.12 5.85605 9.98999 5.73605L9.24999 4.99606C8.80999 4.55606 8.94999 4.11605 9.56999 4.01605L10.53 3.85608C10.69 3.82608 10.88 3.68608 10.95 3.54608L11.48 2.48605C11.77 1.90605 12.23 1.90607 12.52 2.47607Z" stroke="#292D32" stroke-width="1.5" stroke-linecap="round" stroke-linejoin="round"/>
</svg>
