<svg width="74" height="74" viewBox="0 0 74 74" fill="none" xmlns="http://www.w3.org/2000/svg">
<g id="mdi:linkedin">
<path id="Vector" d="M58.3373 9.16309C59.9575 9.16309 61.5112 9.80668 62.6568 10.9523C63.8024 12.0979 64.446 13.6517 64.446 15.2718V58.0326C64.446 59.6528 63.8024 61.2065 62.6568 62.3521C61.5112 63.4978 59.9575 64.1413 58.3373 64.1413H15.5765C13.9563 64.1413 12.4026 63.4978 11.257 62.3521C10.1114 61.2065 9.46777 59.6528 9.46777 58.0326V15.2718C9.46777 13.6517 10.1114 12.0979 11.257 10.9523C12.4026 9.80668 13.9563 9.16309 15.5765 9.16309H58.3373ZM56.8102 56.5055V40.3174C56.8102 37.6766 55.7611 35.144 53.8938 33.2766C52.0264 31.4093 49.4938 30.3603 46.853 30.3603C44.2568 30.3603 41.233 31.9485 39.7669 34.3309V30.9406H31.2453V56.5055H39.7669V41.4475C39.7669 39.0957 41.6606 37.1715 44.0124 37.1715C45.1465 37.1715 46.2342 37.622 47.0361 38.4239C47.838 39.2258 48.2885 40.3135 48.2885 41.4475V56.5055H56.8102ZM21.3186 26.1453C22.6795 26.1453 23.9847 25.6046 24.947 24.6423C25.9093 23.68 26.4499 22.3749 26.4499 21.014C26.4499 18.1734 24.1592 15.8521 21.3186 15.8521C19.9496 15.8521 18.6367 16.3959 17.6687 17.364C16.7006 18.332 16.1568 19.6449 16.1568 21.014C16.1568 23.8545 18.4781 26.1453 21.3186 26.1453ZM25.5642 56.5055V30.9406H17.1036V56.5055H25.5642Z" fill="#00509F"/>
</g>
</svg>
