<svg width="24" height="25" viewBox="0 0 24 25" fill="none" xmlns="http://www.w3.org/2000/svg">
<path d="M21.0799 8.98628V15.8263C21.0799 16.9463 20.4799 17.9863 19.5099 18.5563L13.5699 21.9863C12.5999 22.5463 11.3999 22.5463 10.4199 21.9863L4.47991 18.5563C3.50991 17.9963 2.90991 16.9563 2.90991 15.8263V8.98628C2.90991 7.86628 3.50991 6.82624 4.47991 6.25624L10.4199 2.82625C11.3899 2.26625 12.5899 2.26625 13.5699 2.82625L19.5099 6.25624C20.4799 6.82624 21.0799 7.85628 21.0799 8.98628Z" stroke="#292D32" stroke-width="1.7" stroke-linecap="round" stroke-linejoin="round"/>
<path d="M11.9999 11.4061C13.2867 11.4061 14.3299 10.3629 14.3299 9.07605C14.3299 7.78923 13.2867 6.74609 11.9999 6.74609C10.7131 6.74609 9.66992 7.78923 9.66992 9.07605C9.66992 10.3629 10.7131 11.4061 11.9999 11.4061Z" stroke="#292D32" stroke-width="1.7" stroke-linecap="round" stroke-linejoin="round"/>
<path d="M16 17.0661C16 15.2661 14.21 13.8062 12 13.8062C9.79 13.8062 8 15.2661 8 17.0661" stroke="#292D32" stroke-width="1.7" stroke-linecap="round" stroke-linejoin="round"/>
</svg>
