<svg width="23" height="21" viewBox="0 0 23 21" fill="none" xmlns="http://www.w3.org/2000/svg">
<g id="vuesax/linear/dollar-square">
<g id="dollar-square">
<path id="Vector" d="M8.31055 12.5386C8.31055 13.6674 9.2593 14.5774 10.438 14.5774H12.8435C13.8689 14.5774 14.7026 13.7811 14.7026 12.8011C14.7026 11.7336 14.1947 11.3574 13.4376 11.1124L9.57555 9.88736C8.81846 9.64236 8.31055 9.26611 8.31055 8.19861C8.31055 7.21861 9.1443 6.42236 10.1697 6.42236H12.5751C13.7539 6.42236 14.7026 7.33236 14.7026 8.46111" stroke="#292D32" stroke-width="1.5" stroke-linecap="round" stroke-linejoin="round"/>
<path id="Vector_2" d="M11.5 5.25V15.75" stroke="#292D32" stroke-width="1.5" stroke-linecap="round" stroke-linejoin="round"/>
<path id="Vector_3" d="M14.3748 19.25H8.62484C3.83317 19.25 1.9165 17.5 1.9165 13.125V7.875C1.9165 3.5 3.83317 1.75 8.62484 1.75H14.3748C19.1665 1.75 21.0832 3.5 21.0832 7.875V13.125C21.0832 17.5 19.1665 19.25 14.3748 19.25Z" stroke="#292D32" stroke-width="1.5" stroke-linecap="round" stroke-linejoin="round"/>
</g>
</g>
</svg>
