<svg width="32" height="33" viewBox="0 0 32 33" fill="none" xmlns="http://www.w3.org/2000/svg">
<path d="M16.0268 4.75684C11.6135 4.75684 8.02678 8.3435 8.02678 12.7568V16.6102C8.02678 17.4235 7.68012 18.6635 7.26678 19.3568L5.73345 21.9035C4.78678 23.4768 5.44012 25.2235 7.17345 25.8102C12.9201 27.7302 19.1201 27.7302 24.8668 25.8102C26.4801 25.2768 27.1868 23.3702 26.3068 21.9035L24.7734 19.3568C24.3734 18.6635 24.0268 17.4235 24.0268 16.6102V12.7568C24.0268 8.35684 20.4268 4.75684 16.0268 4.75684Z" stroke="#292D32" stroke-width="1.5" stroke-miterlimit="10" stroke-linecap="round"/>
<path d="M18.4934 5.14338C18.0801 5.02338 17.6534 4.93005 17.2134 4.87671C15.9334 4.71671 14.7067 4.81005 13.5601 5.14338C13.9467 4.15671 14.9067 3.46338 16.0267 3.46338C17.1467 3.46338 18.1067 4.15671 18.4934 5.14338Z" stroke="#292D32" stroke-width="1.5" stroke-miterlimit="10" stroke-linecap="round" stroke-linejoin="round"/>
<path d="M20.0266 26.2905C20.0266 28.4905 18.2266 30.2905 16.0266 30.2905C14.9333 30.2905 13.9199 29.8372 13.1999 29.1172C12.4799 28.3972 12.0266 27.3839 12.0266 26.2905" stroke="#292D32" stroke-width="1.5" stroke-miterlimit="10"/>
</svg>
