<svg width="26" height="25" viewBox="0 0 26 25" fill="none" xmlns="http://www.w3.org/2000/svg">
<g id="vuesax/linear/dollar-circle">
<g id="dollar-circle">
<path id="Vector" d="M9.22559 15.2009C9.22559 16.4909 10.2627 17.5309 11.5513 17.5309H14.1808C15.3018 17.5309 16.2132 16.6209 16.2132 15.5009C16.2132 14.2809 15.658 13.8509 14.8303 13.5709L10.6084 12.1709C9.78082 11.8909 9.22559 11.4609 9.22559 10.2409C9.22559 9.12094 10.137 8.21094 11.258 8.21094H13.8875C15.1761 8.21094 16.2132 9.25094 16.2132 10.5409" stroke="#7E7E7E" stroke-width="1.87991" stroke-linecap="round" stroke-linejoin="round"/>
<path id="Vector_2" d="M12.7129 6.87109V18.8711" stroke="#7E7E7E" stroke-width="1.87991" stroke-linecap="round" stroke-linejoin="round"/>
<path id="Vector_3" d="M12.7125 22.8711C18.4984 22.8711 23.1887 18.3939 23.1887 12.8711C23.1887 7.34825 18.4984 2.87109 12.7125 2.87109C6.92668 2.87109 2.23633 7.34825 2.23633 12.8711C2.23633 18.3939 6.92668 22.8711 12.7125 22.8711Z" stroke="#7E7E7E" stroke-width="1.87991" stroke-linecap="round" stroke-linejoin="round"/>
</g>
</g>
</svg>
