<svg width="193" height="193" viewBox="0 0 193 193" fill="none" xmlns="http://www.w3.org/2000/svg">
<g clip-path="url(#clip0_1113_1202)">
<path d="M64.1667 128.333H43.5532C25.1855 128.333 16.0417 119.189 16.0417 100.822V43.553C16.0417 25.1853 25.1855 16.0415 43.5532 16.0415H80.2084C98.5761 16.0415 107.72 25.1853 107.72 43.553" stroke="#A5A5A5" stroke-width="7.1057" stroke-linecap="round" stroke-linejoin="round"/>
<path d="M148.947 176.458H112.292C93.9245 176.458 84.7808 167.314 84.7808 148.947V91.678C84.7808 73.3103 93.9245 64.1665 112.292 64.1665H148.947C167.315 64.1665 176.459 73.3103 176.459 91.678V148.947C176.459 167.314 167.315 176.458 148.947 176.458Z" stroke="#A5A5A5" stroke-width="7.1057" stroke-linecap="round" stroke-linejoin="round"/>
<path d="M119.271 120.312H145.419" stroke="#A5A5A5" stroke-width="7.1057" stroke-linecap="round" stroke-linejoin="round"/>
<path d="M132.344 133.387V107.239" stroke="#A5A5A5" stroke-width="7.1057" stroke-linecap="round" stroke-linejoin="round"/>
</g>
<defs>
<clipPath id="clip0_1113_1202">
<rect width="192.5" height="192.5" fill="white"/>
</clipPath>
</defs>
</svg>
