<svg width="26" height="25" viewBox="0 0 26 25" fill="none" xmlns="http://www.w3.org/2000/svg">
<g id="vuesax/linear/star">
<g id="star">
<g id="Group">
<path id="Vector" d="M16.6223 5.79301L18.0994 8.613C18.2984 9.003 18.8327 9.373 19.2832 9.453L21.9546 9.87299C23.6623 10.143 24.0604 11.323 22.8346 12.503L20.7499 14.493C20.4041 14.823 20.2051 15.473 20.3204 15.943L20.9175 18.403C21.3889 20.343 20.2994 21.103 18.508 20.083L16.0041 18.663C15.5537 18.403 14.7994 18.403 14.3489 18.663L11.8451 20.083C10.0537 21.093 8.96415 20.343 9.43558 18.403L10.0327 15.943C10.148 15.483 9.94892 14.833 9.6032 14.493L7.51845 12.503C6.29274 11.333 6.69083 10.153 8.39845 9.87299L11.0699 9.453C11.5203 9.383 12.0546 9.003 12.2537 8.613L13.7308 5.79301C14.5165 4.26301 15.8156 4.26301 16.6223 5.79301Z" stroke="#7E7E7E" stroke-width="1.87991" stroke-linecap="round" stroke-linejoin="round"/>
</g>
<path id="Vector_2" d="M8.88142 5.58398H2.5957" stroke="#7E7E7E" stroke-width="1.87991" stroke-linecap="round" stroke-linejoin="round"/>
<path id="Vector_3" d="M5.73856 19.584H2.5957" stroke="#7E7E7E" stroke-width="1.87991" stroke-linecap="round" stroke-linejoin="round"/>
<path id="Vector_4" d="M3.64332 12.584H2.5957" stroke="#7E7E7E" stroke-width="1.87991" stroke-linecap="round" stroke-linejoin="round"/>
</g>
</g>
</svg>
