<svg width="50" height="50" viewBox="0 0 50 50" fill="none" xmlns="http://www.w3.org/2000/svg">
<g id="devicon:slack" clip-path="url(#clip0_1402_3672)">
<g id="Group 33705">
<path id="Vector" d="M46.5716 -16.29H2.68295C-8.01074 -16.29 -16.6797 -7.62109 -16.6797 3.0726V46.9613C-16.6797 57.655 -8.01074 66.3239 2.68295 66.3239H46.5716C57.2653 66.3239 65.9342 57.655 65.9342 46.9613V3.0726C65.9342 -7.62109 57.2653 -16.29 46.5716 -16.29Z" fill="white"/>
<path id="Vector_2" d="M10.5689 31.3076C10.5689 34.1506 8.25031 36.4727 5.40692 36.4727C2.56391 36.4727 0.242188 34.1506 0.242188 31.3076C0.242188 28.4646 2.5643 26.1425 5.4073 26.1425H10.5693L10.5689 31.3076ZM13.1711 31.3076C13.1711 28.4646 15.4932 26.1425 18.3362 26.1425C21.1792 26.1425 23.5013 28.4642 23.5013 31.3076V44.2369C23.5013 47.0799 21.1796 49.402 18.3362 49.402C15.4932 49.402 13.1711 47.0799 13.1711 44.2369V31.3076Z" fill="#DE1C59"/>
<path id="Vector_3" d="M18.3362 10.5711C15.4932 10.5711 13.1711 8.25245 13.1711 5.40905C13.1711 2.56605 15.4932 0.244324 18.3362 0.244324C21.1792 0.244324 23.5013 2.56643 23.5013 5.40944V10.5715L18.3362 10.5711ZM18.3362 13.1732C21.1792 13.1732 23.5013 15.4953 23.5013 18.3383C23.5013 21.1813 21.1796 23.5034 18.3362 23.5034H5.40692C2.56391 23.5034 0.242188 21.1817 0.242188 18.3383C0.242188 15.4953 2.5643 13.1732 5.4073 13.1732H18.3362Z" fill="#35C5F0"/>
<path id="Vector_4" d="M39.074 18.3383C39.074 15.4953 41.3926 13.1732 44.236 13.1732C47.079 13.1732 49.4011 15.4953 49.4011 18.3383C49.4011 21.1813 47.079 23.5034 44.236 23.5034H39.074V18.3383ZM36.4718 18.3383C36.4718 21.1813 34.1497 23.5034 31.3067 23.5034C28.4637 23.5034 26.1416 21.1817 26.1416 18.3383V5.40905C26.1416 2.56605 28.4633 0.244324 31.3067 0.244324C34.1497 0.244324 36.4718 2.56643 36.4718 5.40944V18.3383Z" fill="#2EB57D"/>
<path id="Vector_5" d="M31.3067 39.0749C34.1497 39.0749 36.4718 41.3935 36.4718 44.2369C36.4718 47.0799 34.1497 49.402 31.3067 49.402C28.4637 49.402 26.1416 47.0799 26.1416 44.2369V39.0749H31.3067ZM31.3067 36.4727C28.4637 36.4727 26.1416 34.1506 26.1416 31.3076C26.1416 28.4646 28.4633 26.1425 31.3067 26.1425H44.236C47.079 26.1425 49.4011 28.4642 49.4011 31.3076C49.4011 34.1506 47.079 36.4727 44.236 36.4727H31.3067Z" fill="#EBB02E"/>
</g>
</g>
<defs>
<clipPath id="clip0_1402_3672">
<rect width="49.6459" height="49.6459" fill="white"/>
</clipPath>
</defs>
</svg>
