<svg width="20" height="21" viewBox="0 0 20 21" fill="none" xmlns="http://www.w3.org/2000/svg">
<g id="vuesax/linear/star">
<g id="star">
<path id="Vector" d="M11.4416 3.66055L12.9083 6.59388C13.1083 7.00221 13.6416 7.39388 14.0916 7.46888L16.7499 7.91055C18.4499 8.19388 18.8499 9.42721 17.6249 10.6439L15.5583 12.7105C15.2083 13.0605 15.0166 13.7355 15.1249 14.2189L15.7166 16.7772C16.1833 18.8022 15.1083 19.5855 13.3166 18.5272L10.8249 17.0522C10.3749 16.7855 9.63326 16.7855 9.17492 17.0522L6.68326 18.5272C4.89992 19.5855 3.81659 18.7939 4.28326 16.7772L4.87492 14.2189C4.98326 13.7355 4.79159 13.0605 4.44159 12.7105L2.37492 10.6439C1.15826 9.42721 1.54992 8.19388 3.24992 7.91055L5.90826 7.46888C6.34992 7.39388 6.88326 7.00221 7.08326 6.59388L8.54992 3.66055C9.34992 2.06888 10.6499 2.06888 11.4416 3.66055Z" fill="#FFA800"/>
</g>
</g>
</svg>
