<svg width="40" height="50" viewBox="0 0 40 50" fill="none" xmlns="http://www.w3.org/2000/svg">
<g id="Group 33911">
<path id="Vector" d="M26.4578 0.818058C27.6389 0.951344 28.6782 1.70559 29.2248 2.82614C29.8564 4.12072 29.216 6.66053 27.9352 11.7402L26.862 15.9962C26.3492 18.0299 26.0929 19.0467 26.2694 19.9295C26.4247 20.706 26.8074 21.4103 27.3626 21.9415C27.9937 22.5454 28.9505 22.8179 30.8642 23.3628L32.1058 23.7163C35.7859 24.7642 37.626 25.2881 38.3616 26.3547C39.0012 27.2822 39.2063 28.4697 38.9182 29.578C37.7558 34.0492 17.3881 49.8744 12.8968 49.3353C11.7214 49.1943 10.69 48.4381 10.1486 47.3204C9.52323 46.0294 10.1553 43.5227 11.4194 38.5093L12.3788 34.7043C12.8916 32.6707 13.148 31.6539 12.9714 30.7711C12.8161 29.9945 12.4334 29.2902 11.8782 28.759C11.2471 28.1551 10.2903 27.8827 8.3766 27.3377L6.99499 26.9443C3.35355 25.9075 1.53284 25.389 0.797711 24.3295C0.158384 23.4081 -0.0509749 22.2272 0.228975 21.1217C1.39373 16.5222 22.008 0.315887 26.4578 0.818058Z" fill="#F5C418"/>
</g>
</svg>
