<svg width="29" height="28" viewBox="0 0 29 28" fill="none" xmlns="http://www.w3.org/2000/svg">
<g id="vuesax/linear/element-3">
<g id="element-3">
<path id="Vector" d="M25.7682 9.93968V4.64301C25.7682 2.99801 25.0216 2.33301 23.1666 2.33301H18.4532C16.5982 2.33301 15.8516 2.99801 15.8516 4.64301V9.92801C15.8516 11.5847 16.5982 12.238 18.4532 12.238H23.1666C25.0216 12.2497 25.7682 11.5847 25.7682 9.93968Z" stroke="#434343" stroke-width="1.5" stroke-linecap="round" stroke-linejoin="round"/>
<path id="Vector_2" d="M25.7682 23.065V18.3517C25.7682 16.4967 25.0216 15.75 23.1666 15.75H18.4532C16.5982 15.75 15.8516 16.4967 15.8516 18.3517V23.065C15.8516 24.92 16.5982 25.6667 18.4532 25.6667H23.1666C25.0216 25.6667 25.7682 24.92 25.7682 23.065Z" stroke="#434343" stroke-width="1.5" stroke-linecap="round" stroke-linejoin="round"/>
<path id="Vector_3" d="M12.3512 9.93968V4.64301C12.3512 2.99801 11.6046 2.33301 9.74957 2.33301H5.03624C3.18124 2.33301 2.43457 2.99801 2.43457 4.64301V9.92801C2.43457 11.5847 3.18124 12.238 5.03624 12.238H9.74957C11.6046 12.2497 12.3512 11.5847 12.3512 9.93968Z" stroke="#434343" stroke-width="1.5" stroke-linecap="round" stroke-linejoin="round"/>
<path id="Vector_4" d="M12.3512 23.065V18.3517C12.3512 16.4967 11.6046 15.75 9.74957 15.75H5.03624C3.18124 15.75 2.43457 16.4967 2.43457 18.3517V23.065C2.43457 24.92 3.18124 25.6667 5.03624 25.6667H9.74957C11.6046 25.6667 12.3512 24.92 12.3512 23.065Z" stroke="#434343" stroke-width="1.5" stroke-linecap="round" stroke-linejoin="round"/>
</g>
</g>
</svg>
