<svg width="50" height="50" viewBox="0 0 50 50" fill="none" xmlns="http://www.w3.org/2000/svg">
<g id="Group 33704">
<path id="Vector" d="M1.05912 24.5259C1.05796 28.6971 2.15637 32.77 4.24499 36.3599L0.859375 48.6255L13.5098 45.3343C17.0087 47.2243 20.929 48.2146 24.9128 48.2149H24.9233C38.0746 48.2149 48.7801 37.5962 48.7857 24.5445C48.7883 18.2201 46.3083 12.2729 41.8025 7.79865C37.2976 3.32475 31.3061 0.859576 24.9223 0.856689C11.7695 0.856689 1.06475 11.4748 1.05932 24.5259" fill="url(#paint0_linear_1402_3683)"/>
<path id="Vector_2" d="M0.206528 24.5182C0.20517 28.8395 1.34295 33.058 3.50604 36.7765L-0.000976562 49.4818L13.103 46.0726C16.7136 48.0259 20.7788 49.0558 24.9153 49.0573H24.9259C38.5491 49.0573 49.6391 38.0567 49.645 24.5378C49.6473 17.9861 47.0781 11.8252 42.4114 7.19058C37.7441 2.55657 31.5383 0.00269397 24.9259 0C11.3005 0 0.211958 10.9991 0.206528 24.5182ZM8.01025 36.1361L7.52096 35.3654C5.46415 32.1203 4.37853 28.3703 4.38008 24.5197C4.38454 13.283 13.6008 4.14101 24.9337 4.14101C30.4219 4.14332 35.5796 6.26616 39.459 10.1178C43.3382 13.9698 45.4728 19.0902 45.4714 24.5363C45.4664 35.773 36.2499 44.9161 24.9259 44.9161H24.9178C21.2306 44.9142 17.6144 43.9316 14.4607 42.0749L13.7102 41.6333L5.93404 43.6563L8.01025 36.1359V36.1361Z" fill="url(#paint1_linear_1402_3683)"/>
<path id="Vector_3" d="M18.7484 14.268C18.2857 13.2476 17.7988 13.227 17.3587 13.2091C16.9984 13.1937 16.5865 13.1948 16.175 13.1948C15.7631 13.1948 15.0938 13.3486 14.5281 13.9615C13.9619 14.5749 12.3662 16.0574 12.3662 19.0725C12.3662 22.0878 14.5795 25.0017 14.8881 25.411C15.197 25.8195 19.1609 32.205 25.4388 34.6615C30.6563 36.703 31.718 36.2969 32.8504 36.1946C33.9829 36.0926 36.5048 34.7125 37.0193 33.2814C37.5342 31.8506 37.5342 30.624 37.3798 30.3677C37.2254 30.1124 36.8135 29.959 36.1959 29.6527C35.578 29.3461 32.5415 27.8635 31.9754 27.6589C31.4091 27.4546 30.9974 27.3526 30.5855 27.9662C30.1736 28.5789 28.9908 29.959 28.6303 30.3677C28.2702 30.7774 27.9097 30.8284 27.2922 30.5219C26.6741 30.2144 24.685 29.568 22.3251 27.4804C20.4889 25.8559 19.2493 23.8499 18.889 23.2362C18.5287 22.6235 18.8504 22.2914 19.1601 21.986C19.4377 21.7114 19.778 21.2704 20.0871 20.9127C20.3951 20.5548 20.4979 20.2994 20.7038 19.8907C20.91 19.4816 20.8068 19.1237 20.6526 18.8172C20.4979 18.5106 19.2976 15.4797 18.7484 14.268Z" fill="white"/>
</g>
<defs>
<linearGradient id="paint0_linear_1402_3683" x1="2397.18" y1="4777.74" x2="2397.18" y2="0.856689" gradientUnits="userSpaceOnUse">
<stop stop-color="#1FAF38"/>
<stop offset="1" stop-color="#60D669"/>
</linearGradient>
<linearGradient id="paint1_linear_1402_3683" x1="2482.3" y1="4948.18" x2="2482.3" y2="0" gradientUnits="userSpaceOnUse">
<stop stop-color="#F9F9F9"/>
<stop offset="1" stop-color="white"/>
</linearGradient>
</defs>
</svg>
